<svg width="48" height="45" viewBox="0 0 48 45" fill="none" xmlns="http://www.w3.org/2000/svg">
<path fill-rule="evenodd" clip-rule="evenodd" d="M11.4904 0.0706406C10.3577 0.162156 9.39456 0.35212 8.38354 0.68351C5.94237 1.48345 4.45537 2.93199 3.92877 5.02305C3.78958 5.5758 3.77334 5.80318 3.80962 6.69257C3.85864 7.89583 4.02082 8.55983 4.48383 9.45334C4.81433 10.0913 5.54106 10.9388 6.12466 11.3672C7.35242 12.2683 9.43151 12.944 11.7102 13.1825C12.1945 13.2332 12.5908 13.2951 12.5908 13.32C12.5908 13.3449 12.3433 13.4287 12.0406 13.5063C11.1953 13.723 9.89187 14.184 9.1634 14.524C7.82302 15.1495 6.83462 15.9388 6.16109 16.9215C5.6873 17.6127 5.60481 17.776 5.32227 18.5813C4.90601 19.7679 4.82572 20.4861 4.81555 23.1144C4.80568 25.6663 4.75377 26.0999 4.36582 26.8679C4.14217 27.3107 4.00231 27.4417 3.51911 27.6609C2.98955 27.9012 1.97375 27.8865 0.979584 27.6242C0.583056 27.5195 0.197304 27.4093 0.122324 27.3792C-0.00259144 27.329 -0.0121537 27.3716 0.00848858 27.8864L0.0309526 28.4483L0.562186 28.6199C0.854365 28.7142 1.48615 28.8818 1.96616 28.9922C3.10627 29.2547 4.58833 29.2861 5.45713 29.0664C6.72609 28.7454 7.75562 28.0548 8.39417 27.0962C8.94733 26.2658 9.13334 25.6048 9.32163 23.8002C9.40905 22.962 9.58239 21.2973 9.70685 20.1009C9.83123 18.9044 10.0017 17.6528 10.0856 17.3196C10.4771 15.7643 11.3964 14.6631 12.7249 14.1579C13.6434 13.8087 14.4217 13.7016 16.4043 13.6515L18.2826 13.6041V20.5881V27.572H16.613H14.9434V28.0673V28.5626H23.9365H32.9295V28.0673V27.572H31.2599H29.5903V20.5883V13.6047L31.4307 13.6502C33.3159 13.6969 34.1176 13.7938 34.9043 14.0699C36.429 14.6051 37.3715 15.6108 37.778 17.1362C37.9774 17.8842 38.0379 18.3469 38.3552 21.5523C38.7493 25.5344 38.8183 25.9087 39.3247 26.81C39.6709 27.4265 40.5277 28.2475 41.1788 28.5869C42.0574 29.0448 42.7303 29.1908 43.9716 29.1928C45.1263 29.1946 45.9448 29.0601 47.2349 28.6567L47.9179 28.4432L47.9402 27.8933C47.9524 27.5909 47.9353 27.3439 47.9023 27.3444C47.8691 27.345 47.5859 27.4273 47.2728 27.5275C46.9598 27.6276 46.3766 27.7507 45.9768 27.8009C45.3513 27.8796 45.1834 27.8752 44.7736 27.7699C43.8354 27.5285 43.4852 27.104 43.215 25.8805C43.11 25.4055 43.0817 24.818 43.066 22.7944C43.0446 20.0265 42.9871 19.5708 42.4984 18.3029C42.0673 17.1843 41.1965 16.0732 40.1771 15.3409C39.2494 14.6745 37.071 13.7552 35.7404 13.4687C35.5309 13.4236 35.343 13.36 35.3229 13.3274C35.3028 13.2948 35.5612 13.2452 35.897 13.217C36.8273 13.1391 38.1821 12.8891 39.0713 12.6311C41.7646 11.8496 43.3508 10.3843 43.9408 8.13258C44.1654 7.27519 44.1888 5.67547 43.9874 4.94091C43.538 3.30171 42.403 1.99459 40.7083 1.16448C39.4158 0.531416 38.1727 0.221361 36.3044 0.0659153C35.2134 -0.0248378 12.6184 -0.0205698 11.4904 0.0706406ZM23.7928 1.0229C23.7675 1.08919 23.7468 1.25637 23.7468 1.39437C23.7468 1.53237 23.7263 1.74801 23.7013 1.87351L23.6558 2.10173L22.6957 2.15347C21.5037 2.21763 19.7784 2.4095 19.5255 2.50612C18.9578 2.72283 19.887 2.89008 22.6941 3.07647L23.4249 3.12501L23.4777 3.44237C23.5067 3.61695 23.5595 3.93127 23.5951 4.14081C23.7048 4.78683 23.6814 6.05898 23.5507 6.5657C23.4474 6.96582 23.4439 7.11441 23.5258 7.62083C23.6104 8.14356 23.6059 8.26082 23.4868 8.65592C23.3602 9.07562 23.3598 9.12553 23.4792 9.51674C23.76 10.4363 23.6821 12.2203 23.3236 13.0818L23.2145 13.3439L23.0289 13.1429C22.8122 12.9081 22.7732 12.9026 22.5704 13.0787C22.2053 13.396 22.1889 13.4629 22.4178 13.7029C22.6185 13.9133 22.6275 13.9525 22.5874 14.4431C22.5507 14.8924 22.5654 14.983 22.6982 15.1266C22.8238 15.2622 22.8649 15.4614 22.9264 16.2315C22.9678 16.7481 22.9869 17.6166 22.969 18.1614C22.9331 19.2517 22.8956 19.3954 22.2125 21.057C21.5637 22.6354 21.2341 23.1686 20.3282 24.105C19.8823 24.566 19.4786 25.0181 19.4312 25.1096C19.2998 25.3636 19.3283 25.8688 19.4924 26.1917C19.885 26.9643 20.9796 27.5051 22.601 27.7276C23.6143 27.8666 25.7241 27.785 26.5168 27.5762C27.7049 27.2631 28.4508 26.7945 28.7504 26.173C29.0882 25.4725 28.906 25.009 27.9039 24.0189C27.1277 23.2519 26.8687 22.844 26.217 21.3618C25.441 19.597 25.3867 19.3857 25.3561 18.0091C25.3199 16.3848 25.4208 15.2657 25.6216 15.064C25.7536 14.9314 25.7635 14.8623 25.7055 14.4802C25.6693 14.2418 25.5727 13.961 25.4908 13.8562C25.1885 13.4694 24.9297 12.9836 24.8246 12.6059C24.6441 11.9568 24.6165 10.5097 24.7706 9.77231C24.8509 9.38811 24.8822 9.03897 24.8499 8.88718C24.7395 8.36796 24.722 7.7301 24.8097 7.41578C24.8859 7.14253 24.8793 7.01863 24.7693 6.64418C24.6033 6.07955 24.6017 4.62239 24.7662 3.76767C24.8299 3.43673 24.8916 3.1564 24.9032 3.14474C24.9149 3.13308 25.4705 3.08599 26.138 3.04012C28.1113 2.90448 29.0526 2.75308 28.9508 2.58765C28.863 2.44516 27.3431 2.24689 25.6186 2.15316C25.0146 2.12032 24.6346 2.06805 24.6184 2.01562C24.6041 1.96906 24.5701 1.69962 24.5429 1.4167L24.4936 0.902353H24.1662C23.9378 0.902353 23.825 0.938776 23.7928 1.0229ZM12.9495 1.06359C10.5376 1.29699 9.18252 2.27584 8.68961 4.14081C8.46156 5.00354 8.3777 6.28589 8.47408 7.43627C8.76079 10.8562 10.0394 12.1946 13.3658 12.5568C13.771 12.6009 15.0432 12.637 16.1927 12.637H18.2826V6.80778V0.978552L15.949 0.988839C14.6655 0.994478 13.3157 1.02816 12.9495 1.06359ZM29.5903 6.80596V12.652L32.1896 12.6135C34.8445 12.5742 35.4326 12.5175 36.3774 12.2101C37.8833 11.7202 38.8126 10.668 39.2308 8.97946C39.4606 8.05189 39.5248 5.73162 39.3489 4.71901C39.0031 2.72968 37.9433 1.64118 35.9272 1.20463C35.2534 1.05879 34.8553 1.03585 32.3793 1.00012L29.5903 0.959884V6.80596ZM26.2622 37.0017C25.5514 39.1705 24.7091 41.7422 24.3903 42.7166L23.8107 44.4882H23.1337H22.4566V44.7168V44.9454H24.1641H25.8717V44.7168V44.4882H25.1215H24.3714L24.5807 43.8215C24.6958 43.4548 24.9672 42.5976 25.1838 41.9165L25.5776 40.6783H27.2389H28.9002L28.9715 40.9259C29.0107 41.0622 29.2685 41.888 29.5443 42.7613C29.82 43.6344 30.0457 44.3803 30.0457 44.4186C30.0457 44.4569 29.7383 44.4882 29.3627 44.4882H28.6796V44.7168V44.9454H30.5283C31.5452 44.9454 32.5356 44.9236 32.7292 44.897C33.0351 44.8548 33.0813 44.8249 33.0813 44.6684C33.0813 44.4943 33.0614 44.4882 32.483 44.4882H31.8848L31.5415 43.4024C31.3527 42.8052 30.8559 41.2364 30.4376 39.9163C30.0192 38.5961 29.3611 36.513 28.975 35.2872L28.2732 33.0584H27.9139H27.5546L26.2622 37.0017ZM42.921 33.1917C42.8819 33.2553 41.8977 36.5657 40.6442 40.8492C40.5125 41.2995 40.385 41.668 40.3609 41.6683C40.3368 41.6686 40.1929 41.2317 40.0411 40.6973C39.1329 37.4996 37.925 33.3271 37.8921 33.2735C37.8708 33.239 37.07 33.2108 36.1124 33.2108H34.3714V33.4013C34.3714 33.5896 34.379 33.5918 35.0165 33.5918H35.6616L35.6777 38.6209C35.6865 41.3869 35.695 43.83 35.6966 44.0501L35.6995 44.4501L35.0355 44.4722C34.3865 44.4937 34.3714 44.4984 34.3714 44.6817V44.8692H35.9651H37.5588V44.6787C37.5588 44.4904 37.5512 44.4882 36.9138 44.4882H36.2687L36.2686 42.9452C36.2685 42.0965 36.2471 39.722 36.221 37.6684C36.1904 35.2695 36.1996 33.9619 36.2466 34.0109C36.2869 34.0528 36.928 36.1444 37.6713 38.659C38.4146 41.1736 39.13 43.591 39.261 44.031L39.4991 44.8311H39.7594H40.0198L40.5012 43.231C40.766 42.3509 41.2332 40.8078 41.5395 39.802C41.8458 38.7962 42.363 37.0897 42.6888 36.0099C43.0723 34.7389 43.3027 34.0852 43.3423 34.1563C43.376 34.2166 43.3947 36.5574 43.384 39.3581L43.3645 44.4501L42.7004 44.4722C42.0515 44.4937 42.0364 44.4984 42.0364 44.6817V44.8692H44.2372H46.438V44.6817C46.438 44.4984 46.4229 44.4937 45.774 44.4722L45.1099 44.4501L45.0904 39.021L45.071 33.5918H45.7165H46.3621V33.3632V33.1346H44.6591C43.7224 33.1346 42.9402 33.1603 42.921 33.1917ZM2.86805 33.2675L2.06239 33.2919L2.01283 34.1847C1.98559 34.6758 1.94218 35.4291 1.91645 35.8587L1.86955 36.6397H2.1061C2.28968 36.6397 2.35116 36.6013 2.38045 36.4683C2.7785 34.6608 2.97976 34.2226 3.55986 33.9001C3.86745 33.7291 3.98811 33.71 4.77411 33.7081L5.64685 33.7061L5.66636 39.1353L5.68579 44.5644H4.96437C4.24424 44.5644 4.24288 44.5648 4.24288 44.7561V44.9476L6.53857 44.9275L8.83426 44.9073L8.85854 44.7359C8.88222 44.5685 8.8659 44.5644 8.16543 44.5644H7.44819L7.39613 41.2688C7.36752 39.4562 7.35492 37.0131 7.3682 35.8396L7.39234 33.7061L7.94915 33.6835C9.42469 33.6238 10.2582 34.3575 10.5999 36.0166L10.7296 36.6467L10.9582 36.6242C11.1123 36.6089 11.1841 36.5619 11.1783 36.4799C11.1735 36.413 11.1463 35.6785 11.1177 34.8476C11.0892 34.0167 11.0484 33.3085 11.027 33.2739C10.9913 33.2159 4.73412 33.211 2.86805 33.2675ZM11.9078 33.4394V33.668H12.6667H13.4256V39.0781V44.4882H12.6667H11.9078V44.7168V44.9454H16.4515H20.9951L21.0405 44.4311C21.0655 44.1482 21.1052 43.5567 21.1289 43.1167C21.1526 42.6766 21.1899 42.1708 21.2118 41.9927L21.2517 41.6689H20.9997H20.7477L20.6147 42.2594C20.3629 43.3783 20.0084 43.9056 19.2761 44.2503C18.8609 44.4456 18.8123 44.4505 17.0115 44.476L15.1711 44.5021V41.8282V39.1543H15.5848C16.8566 39.1543 17.4913 39.6656 17.6423 40.8116C17.692 41.189 17.7074 41.2117 17.913 41.2117H18.1308V39.0019V36.7921H17.9108C17.6987 36.7921 17.6861 36.8129 17.5631 37.368C17.3486 38.3364 16.9763 38.6063 15.7738 38.665L15.1943 38.6933L15.1447 37.7689C15.1175 37.2604 15.0952 36.1297 15.0952 35.2562V33.668H16.5714C18.5813 33.668 19.1059 33.7946 19.6636 34.4145C19.9348 34.7159 20.1989 35.3053 20.2964 35.8268C20.3392 36.056 20.3812 36.1063 20.5298 36.1063H20.7111V34.6586V33.2108H16.3095H11.9078V33.4394ZM26.5955 37.5295C26.2344 38.6536 25.9067 39.6728 25.8674 39.7943C25.828 39.9158 25.7958 40.0444 25.7958 40.08C25.7958 40.1157 26.4447 40.1449 27.2377 40.1449C28.0308 40.1449 28.6796 40.1264 28.6796 40.1038C28.6796 40.0465 27.3005 35.5405 27.2737 35.5102C27.2617 35.4967 26.9565 36.4053 26.5955 37.5295Z" fill="white"/>
</svg>
